<svg xmlns="http://www.w3.org/2000/svg" width="30.39" height="28" viewBox="0 0 30.39 28">
  <path id="ios-bookmarks-outline" d="M30.375,4.5H19.8a2.391,2.391,0,0,0-1.8.823A2.36,2.36,0,0,0,16.2,4.5H5.625a2.217,2.217,0,0,0-2.32,2.25V26.866a2.324,2.324,0,0,0,2.32,2.384H15.7c.97,0,1.737.3,1.737,1.364V31.5h1.125v-.886c0-1.076.766-1.364,1.737-1.364H30.375a2.324,2.324,0,0,0,2.32-2.384V6.75A2.217,2.217,0,0,0,30.375,4.5ZM17.438,28.905a1.833,1.833,0,0,0-1.673-.78H5.625A1.193,1.193,0,0,1,4.5,26.866V6.75A1.078,1.078,0,0,1,5.625,5.625H15.7a1.861,1.861,0,0,1,1.737,1.561v21.72ZM22.5,5.625H27v7.059l-1.61-1.02-.64-.45-.64.45-1.61,1.02Zm9,21.241a1.193,1.193,0,0,1-1.125,1.259H20.236a1.7,1.7,0,0,0-1.673.78V7.186A1.861,1.861,0,0,1,20.3,5.625h1.075v9.211l3.375-2.25,3.375,2.25V5.625h2.25A1.082,1.082,0,0,1,31.5,6.75Z" transform="translate(-2.805 -4)" fill="#fff" stroke="#fff" stroke-width="1"/>
</svg>
