<svg xmlns="http://www.w3.org/2000/svg" width="24.254" height="26.079" viewBox="0 0 24.254 26.079">
  <g id="person-outline" transform="translate(-3.371 -2.25)">
    <path id="패스_8885" data-name="패스 8885" d="M21.891,8.874c-.225,3.028-2.521,5.5-5.041,5.5s-4.82-2.47-5.041-5.5a4.94,4.94,0,0,1,5.041-5.5A4.968,4.968,0,0,1,21.891,8.874Z" transform="translate(-1.352)" fill="none" stroke="#000" stroke-linecap="round" stroke-linejoin="round" stroke-width="2.25"/>
    <path id="패스_8886" data-name="패스 8886" d="M15.5,21.375c-4.983,0-10.042,2.75-10.978,7.939a.963.963,0,0,0,.9,1.226H25.579a.962.962,0,0,0,.9-1.226C25.54,24.125,20.481,21.375,15.5,21.375Z" transform="translate(0 -3.336)" fill="none" stroke="#000" stroke-miterlimit="10" stroke-width="2.25"/>
  </g>
</svg>
