<svg xmlns="http://www.w3.org/2000/svg" width="29.813" height="20.25" viewBox="0 0 29.813 20.25">
  <g id="list" transform="translate(-3.375 -7.875)">
    <path id="패스_8875" data-name="패스 8875" d="M11.25,10.125H31.5" fill="none" stroke="#fff" stroke-linecap="round" stroke-linejoin="round" stroke-width="3.375"/>
    <path id="패스_8876" data-name="패스 8876" d="M11.25,18H31.5" fill="none" stroke="#fff" stroke-linecap="round" stroke-linejoin="round" stroke-width="3.375"/>
    <path id="패스_8877" data-name="패스 8877" d="M11.25,25.875H31.5" fill="none" stroke="#fff" stroke-linecap="round" stroke-linejoin="round" stroke-width="3.375"/>
    <path id="패스_8878" data-name="패스 8878" d="M6.75,10.125A1.125,1.125,0,1,1,5.625,9,1.125,1.125,0,0,1,6.75,10.125Z" fill="none" stroke="#fff" stroke-linecap="round" stroke-linejoin="round" stroke-width="2.25"/>
    <path id="패스_8879" data-name="패스 8879" d="M6.75,18a1.125,1.125,0,1,1-1.125-1.125A1.125,1.125,0,0,1,6.75,18Z" fill="none" stroke="#fff" stroke-linecap="round" stroke-linejoin="round" stroke-width="2.25"/>
    <path id="패스_8880" data-name="패스 8880" d="M6.75,25.875A1.125,1.125,0,1,1,5.625,24.75,1.125,1.125,0,0,1,6.75,25.875Z" fill="none" stroke="#fff" stroke-linecap="round" stroke-linejoin="round" stroke-width="2.25"/>
  </g>
</svg>
