<svg xmlns="http://www.w3.org/2000/svg" width="22.744" height="22.743" viewBox="0 0 22.744 22.743">
  <path id="gear" d="M13.829,10.372a3.459,3.459,0,0,0-3.457-3.457,3.459,3.459,0,0,0-3.457,3.457,3.459,3.459,0,0,0,3.457,3.457,3.459,3.459,0,0,0,3.457-3.457ZM20.744,8.9v3a.52.52,0,0,1-.108.311.412.412,0,0,1-.27.176l-2.5.378a8.619,8.619,0,0,1-.527,1.229q.472.675,1.445,1.864a.522.522,0,0,1,.135.338.45.45,0,0,1-.122.311,13.753,13.753,0,0,1-1.337,1.458q-.972.959-1.269.959a.659.659,0,0,1-.351-.122L13.978,17.34a7.715,7.715,0,0,1-1.229.513,22.022,22.022,0,0,1-.392,2.512.455.455,0,0,1-.486.378h-3a.51.51,0,0,1-.331-.115.4.4,0,0,1-.155-.29l-.378-2.485a8.361,8.361,0,0,1-1.215-.5L4.889,18.8a.485.485,0,0,1-.338.122.465.465,0,0,1-.338-.149A17.814,17.814,0,0,1,1.986,16.5a.528.528,0,0,1-.095-.311A.52.52,0,0,1,2,15.882q.2-.284.689-.9t.729-.952a6.679,6.679,0,0,1-.554-1.337L.392,12.33a.425.425,0,0,1-.284-.169A.514.514,0,0,1,0,11.844v-3a.52.52,0,0,1,.108-.311A.408.408,0,0,1,.365,8.36l2.512-.378A6.665,6.665,0,0,1,3.4,6.739q-.54-.77-1.445-1.864a.508.508,0,0,1-.135-.324.57.57,0,0,1,.122-.311,13.366,13.366,0,0,1,1.33-1.452q.98-.966,1.276-.966a.574.574,0,0,1,.351.135L6.765,3.4A7.715,7.715,0,0,1,7.995,2.89,22.021,22.021,0,0,1,8.386.378.455.455,0,0,1,8.873,0h3A.51.51,0,0,1,12.2.115a.4.4,0,0,1,.156.29l.378,2.485a8.361,8.361,0,0,1,1.215.5l1.918-1.445a.438.438,0,0,1,.324-.122.522.522,0,0,1,.338.135,18.5,18.5,0,0,1,2.228,2.3.437.437,0,0,1,.094.3.52.52,0,0,1-.108.311q-.2.284-.689.9t-.729.952a8.167,8.167,0,0,1,.554,1.324l2.471.378a.425.425,0,0,1,.283.169.515.515,0,0,1,.108.317Z" transform="translate(1 1)" fill="none" stroke="#2c2c2c" stroke-width="2"/>
</svg>
