<svg width="35" height="35" xmlns="http://www.w3.org/2000/svg" xmlns:xlink="http://www.w3.org/1999/xlink" xml:space="preserve" overflow="hidden"><defs><clipPath id="clip0"><rect x="572" y="8" width="35" height="35"/></clipPath></defs><g clip-path="url(#clip0)" transform="translate(-572 -8)"><path d="M589.172 15.1823C588.333 15.1823 587.641 15.875 587.641 16.7135 587.641 17.5521 588.333 18.2448 589.172 18.2448 590.01 18.2448 590.703 17.5521 590.703 16.7135 590.703 15.875 590.01 15.1823 589.172 15.1823Z"/><path d="M586.109 24.1146C586.109 24.9603 585.424 25.6458 584.578 25.6458 583.732 25.6458 583.047 24.9603 583.047 24.1146 583.047 23.2689 583.732 22.5833 584.578 22.5833 585.424 22.5833 586.109 23.2689 586.109 24.1146Z"/><path d="M593.51 17.224 592.599 17.6615C592.526 17.9531 592.38 18.2083 592.234 18.4635L592.562 19.4115 591.833 20.1406 590.885 19.8125C590.63 19.9583 590.375 20.0677 590.083 20.1406L589.646 21.0156 588.625 21.0156 588.188 20.1042C587.896 20.0312 587.641 19.9219 587.385 19.776L586.438 20.1042 585.708 19.375 586.036 18.4271C585.891 18.1719 585.781 17.9167 585.708 17.625L584.797 17.1875 584.797 16.1667 585.708 15.7292C585.781 15.4375 585.891 15.1823 586.036 14.9271L585.745 13.9792 586.474 13.25 587.422 13.5781C587.677 13.4323 587.932 13.3229 588.224 13.25L588.661 12.3385 589.682 12.3385 590.12 13.2135C590.411 13.2865 590.667 13.3958 590.922 13.5417L591.87 13.2135 592.599 13.9427 592.271 14.8906C592.417 15.1458 592.526 15.401 592.599 15.6927L593.51 16.1302 593.51 17.224ZM588.917 24.625 588.005 25.0625C587.932 25.3542 587.823 25.6094 587.677 25.8646L587.969 26.8125 587.24 27.5417 586.292 27.2135C586.036 27.3594 585.781 27.4688 585.49 27.5417L585.089 28.4167 584.068 28.4167 583.63 27.5052C583.339 27.4323 583.083 27.3229 582.828 27.1771L581.88 27.4688 581.151 26.7396 581.479 25.7917C581.333 25.5365 581.224 25.2813 581.151 24.9896L580.24 24.5521 580.24 23.5312 581.151 23.0938C581.224 22.8021 581.333 22.5469 581.479 22.2917L581.151 21.3438 581.88 20.6146 582.828 20.9427C583.083 20.7969 583.339 20.6875 583.63 20.6146L584.068 19.7031 585.125 19.7031 585.562 20.6146C585.854 20.6875 586.109 20.7969 586.365 20.9427L587.312 20.6146 588.042 21.3438 587.714 22.2917C587.859 22.5469 587.969 22.8021 588.042 23.0938L588.953 23.5312 588.917 24.625 588.917 24.625ZM601.531 25.974 599.016 21.599 599.016 21.4167C599.161 17.4062 597.12 13.651 593.656 11.5729 590.193 9.53125 585.927 9.53125 582.464 11.5729 579 13.6146 576.958 17.4062 577.104 21.4167 577.104 24.8802 578.672 28.125 581.406 30.2396L581.406 39.4635 592.927 39.4635 592.927 35.0885 594.714 35.0885C595.88 35.0885 596.974 34.6146 597.776 33.8125 598.578 32.974 599.016 31.8802 599.016 30.7135L599.016 28.526 600.62 28.526C601.568 28.4167 602.406 27.3229 601.531 25.974Z"/></g></svg>