<svg xmlns="http://www.w3.org/2000/svg" width="29.264" height="29.249" viewBox="0 0 29.264 29.249">
  <g id="ios-megaphone" transform="translate(-3.368 -3.375)">
    <path id="패스_8857" data-name="패스 8857" d="M6.335,13.148A6.458,6.458,0,0,1,9.394,7.6a.227.227,0,0,0-.12-.422,5.43,5.43,0,0,0-5.21,4.908,1,1,0,0,0-.7,1.048.959.959,0,0,0,.759,1.041,6.2,6.2,0,0,0,4.3,4.535.306.306,0,0,0,.267-.527,7.008,7.008,0,0,1-2.363-5.034Z" fill="#fff"/>
    <path id="패스_8858" data-name="패스 8858" d="M31.655,7.228c-.07-.19-.148-.366-.225-.541A7.2,7.2,0,0,0,29.9,4.423a3.471,3.471,0,0,0-2.447-1.048,3.221,3.221,0,0,0-1.814.548A25.077,25.077,0,0,1,14.815,7.157c-2.932,0-2.77.014-2.77.014a6.593,6.593,0,0,0-.731,11.6c.851.71,1.659.619,1.484,1.561s-1.582,6.855-1.758,8.086-.2,1.934.281,2.531,3.48,1.673,4.781,1.673.97-.612.97-3.08-.654-9.26,1.16-9.26c3.4,0,5.168,1.216,7.826,2.229a3.766,3.766,0,0,0,1.413.33,3.47,3.47,0,0,0,2.44-1.28A7.289,7.289,0,0,0,31.437,19.3c.077-.183.155-.366.232-.563a16.413,16.413,0,0,0,.963-5.759,16.454,16.454,0,0,0-.977-5.752Zm-1.87,11.039c-.45,1.1-1.238,1.983-1.891,1.983s-1.252-.879-1.7-1.983a14.506,14.506,0,0,1-.865-5.252,14.535,14.535,0,0,1,.865-5.266c.45-1.1,1.048-1.758,1.695-1.758s1.427.668,1.884,1.758a14.164,14.164,0,0,1,.015,10.518Z" fill="#fff"/>
  </g>
</svg>
