<svg xmlns="http://www.w3.org/2000/svg" width="20.98" height="20.98" viewBox="0 0 20.98 20.98">
  <g id="그룹_2946" data-name="그룹 2946" transform="translate(-310.75 -23.75)">
    <path id="패스_8800" data-name="패스 8800" d="M8.785,16.219A7.434,7.434,0,1,0,1.352,8.785,7.434,7.434,0,0,0,8.785,16.219ZM17.57,8.785A8.785,8.785,0,1,1,8.785,0a8.9,8.9,0,0,1,7.606,4.386,8.486,8.486,0,0,1,1.179,4.4Z" transform="translate(311 24)" fill="#2c2c2c" stroke="#2c2c2c" stroke-width="0.5" fill-rule="evenodd"/>
    <path id="패스_8801" data-name="패스 8801" d="M23.274,25.271a1.782,1.782,0,0,0,.14.164l5.5,5.5a1.429,1.429,0,1,0,2.021-2.02l-5.5-5.5a1.439,1.439,0,0,0-.164-.143,9.339,9.339,0,0,1-2,2Z" transform="translate(300.377 13.377)" fill="#2c2c2c"/>
  </g>
</svg>
