<svg xmlns="http://www.w3.org/2000/svg" width="18.902" height="13.017" viewBox="0 0 18.902 13.017">
  <path id="패스_8909" data-name="패스 8909" d="M4.174,17.721a.657.657,0,0,0,.547-.541,5.336,5.336,0,0,1,5.23-4.805,4.873,4.873,0,0,1,4.584,3.176.647.647,0,0,0,.5.4,4.073,4.073,0,0,1,3.743,4.069,4.183,4.183,0,0,1-4.413,4.118H4.8c-2.022,0-3.677-1.009-3.677-3.236a3.278,3.278,0,0,1,3.049-3.185Z" transform="translate(-0.5 -11.75)" fill="none" stroke="#000" stroke-linejoin="round" stroke-width="1.25"/>
</svg>
