<svg xmlns="http://www.w3.org/2000/svg" width="18.248" height="18.248" viewBox="0 0 18.248 18.248">
  <g id="umbrella-outline" transform="translate(0.625 0.625)">
    <path id="패스_8915" data-name="패스 8915" d="M16.115,19.125v6.538a1.308,1.308,0,0,1-1.308,1.308h0A1.308,1.308,0,0,1,13.5,25.663" transform="translate(-7.616 -9.973)" fill="none" stroke="#000" stroke-linecap="round" stroke-linejoin="round" stroke-width="1.25"/>
    <path id="패스_8916" data-name="패스 8916" d="M20.373,13a8.5,8.5,0,0,0-17,0h0A2.774,2.774,0,0,1,7.3,13h0a3.2,3.2,0,0,1,4.181-.3l.4.3.4-.3a3.2,3.2,0,0,1,4.181.3h0A2.774,2.774,0,0,1,20.373,13Z" transform="translate(-3.375 -3.847)" fill="none" stroke="#000" stroke-linecap="round" stroke-linejoin="round" stroke-width="1.25"/>
    <path id="패스_8917" data-name="패스 8917" d="M18,4.029V3.375" transform="translate(-9.501 -3.375)" fill="none" stroke="#000" stroke-linecap="round" stroke-linejoin="round" stroke-width="1.25"/>
  </g>
</svg>
