<svg xmlns="http://www.w3.org/2000/svg" width="18.248" height="18.248" viewBox="0 0 18.248 18.248">
  <g id="sunny-outline" transform="translate(0.625 0.625)">
    <path id="패스_8894" data-name="패스 8894" d="M18,3.375V5.336" transform="translate(-9.501 -3.375)" fill="none" stroke="#000" stroke-linecap="round" stroke-miterlimit="10" stroke-width="1.25"/>
    <path id="패스_8895" data-name="패스 8895" d="M18,29.25v1.961" transform="translate(-9.501 -14.214)" fill="none" stroke="#000" stroke-linecap="round" stroke-miterlimit="10" stroke-width="1.25"/>
    <path id="패스_8896" data-name="패스 8896" d="M27.343,7.658,25.956,9.045" transform="translate(-12.834 -5.169)" fill="none" stroke="#000" stroke-linecap="round" stroke-miterlimit="10" stroke-width="1.25"/>
    <path id="패스_8897" data-name="패스 8897" d="M9.046,25.955,7.659,27.342" transform="translate(-5.169 -12.833)" fill="none" stroke="#000" stroke-linecap="round" stroke-miterlimit="10" stroke-width="1.25"/>
    <path id="패스_8898" data-name="패스 8898" d="M31.211,18H29.25" transform="translate(-14.214 -9.501)" fill="none" stroke="#000" stroke-linecap="round" stroke-miterlimit="10" stroke-width="1.25"/>
    <path id="패스_8899" data-name="패스 8899" d="M5.336,18H3.375" transform="translate(-3.375 -9.501)" fill="none" stroke="#000" stroke-linecap="round" stroke-miterlimit="10" stroke-width="1.25"/>
    <path id="패스_8900" data-name="패스 8900" d="M27.343,27.343l-1.387-1.387" transform="translate(-12.834 -12.834)" fill="none" stroke="#000" stroke-linecap="round" stroke-miterlimit="10" stroke-width="1.25"/>
    <path id="패스_8901" data-name="패스 8901" d="M9.046,9.046,7.659,7.659" transform="translate(-5.169 -5.17)" fill="none" stroke="#000" stroke-linecap="round" stroke-miterlimit="10" stroke-width="1.25"/>
    <path id="패스_8902" data-name="패스 8902" d="M18.913,15.644a3.269,3.269,0,1,1-3.269-3.269A3.269,3.269,0,0,1,18.913,15.644Z" transform="translate(-7.145 -7.145)" fill="none" stroke="#000" stroke-linecap="round" stroke-miterlimit="10" stroke-width="1.25"/>
  </g>
</svg>
