<svg xmlns="http://www.w3.org/2000/svg" width="18.902" height="18.6" viewBox="0 0 18.902 18.6">
  <g id="그룹_2947" data-name="그룹 2947" transform="translate(0.625 0.625)">
    <path id="패스_8910" data-name="패스 8910" d="M4.174,17.721a.657.657,0,0,0,.547-.541,5.336,5.336,0,0,1,5.23-4.805,4.873,4.873,0,0,1,4.584,3.176.647.647,0,0,0,.5.4,4.073,4.073,0,0,1,3.743,4.069,4.183,4.183,0,0,1-4.413,4.118H4.8c-2.022,0-3.677-1.009-3.677-3.236a3.278,3.278,0,0,1,3.049-3.185Z" transform="translate(-1.125 -12.375)" fill="none" stroke="#000" stroke-linejoin="round" stroke-width="1.25"/>
    <path id="패스_8911" data-name="패스 8911" d="M10.482,6.323a1.213,1.213,0,0,1-1.3,1.3,1.213,1.213,0,0,1-1.3-1.3A4.78,4.78,0,0,1,9.1,3.97a.109.109,0,0,1,.165,0A4.78,4.78,0,0,1,10.482,6.323Z" transform="translate(-0.352 9.724)" fill="none" stroke="#000" stroke-miterlimit="10" stroke-width="1.25"/>
    <path id="패스_8913" data-name="패스 8913" d="M9.476,5.4a.745.745,0,0,1-.8.8.745.745,0,0,1-.8-.8,2.935,2.935,0,0,1,.75-1.445.067.067,0,0,1,.1,0A2.935,2.935,0,0,1,9.476,5.4Z" transform="translate(3.31 9.304)" fill="none" stroke="#000" stroke-miterlimit="10" stroke-width="1.25"/>
    <path id="패스_8914" data-name="패스 8914" d="M9.476,5.4a.745.745,0,0,1-.8.8.745.745,0,0,1-.8-.8,2.935,2.935,0,0,1,.75-1.445.067.067,0,0,1,.1,0A2.935,2.935,0,0,1,9.476,5.4Z" transform="translate(-3.009 9.304)" fill="none" stroke="#000" stroke-miterlimit="10" stroke-width="1.25"/>
  </g>
</svg>
